<svg viewBox="0 0 512 512" xmlns="http://www.w3.org/2000/svg"><path d="m502.285 159.704-234-156c-7.987-4.915-16.511-4.96-24.571 0l-234 156c-6 3.999-9.714 11.143-9.714 18.285v155.999c0 7.143 3.714 14.286 9.715 18.286l234 156.022c7.987 4.915 16.511 4.96 24.571 0l234-156.022c6-3.999 9.715-11.143 9.715-18.286v-155.999c-.001-7.142-3.715-14.286-9.716-18.285zm-224.285-96.573 172.286 114.858-76.857 51.429-95.429-63.715zm-44 0v102.572l-95.429 63.715-76.857-51.429zm-190 156.001 55.143 36.857-55.143 36.857zm190 229.715-172.286-114.858 76.857-51.429 95.429 63.715zm22-140.858-77.715-52 77.715-52 77.715 52zm22 140.858v-102.572l95.429-63.715 76.857 51.429zm190-156.001-55.143-36.857 55.143-36.857z"/></svg>