<svg viewBox="0 0 496 512" xmlns="http://www.w3.org/2000/svg"><path d="m247.6 8c141.8 0 248.4 110.1 248.4 248 0 147.1-118.5 248-248.4 248-134 0-247.6-109.5-247.6-248 0-132.9 104.7-248 247.6-248zm.8 44.7c-118.2 0-203.7 97.9-203.7 203.3 0 109.8 91.2 202.8 203.7 202.8 103.2 0 202.8-81.1 202.8-202.8.1-113.8-90.2-203.3-202.8-203.3zm161.7 207.7 4.9 2.2v70c-7.2 3.6-63.4 27.5-67.3 28.8-6.5-1.8-113.7-46.8-137.3-56.2l-64.2 26.6-63.3-27.5v-63.8l59.3-24.8c-.7-.7-.4 5-.4-70.4l67.3-29.7 151.9 62.9v61.6zm-70.4 81.5v-43.8h-.4v-1.8l-113.8-46.5v45.2l113.8 46.9v-.4zm7.5-57.6 39.9-16.4-36.8-15.5-39 16.4zm52.3 38.1v-43l-44.3 18.6v43.4z"/></svg>