<svg viewBox="0 0 640 512" xmlns="http://www.w3.org/2000/svg"><path d="m238 301.2h58.7l22.3-30.2h-58.7zm-238-18.3v6.4h81.8l4.7-6.4zm172.9-11.9c-8.7 0-6-3.6-4.6-5.5 2.8-3.8 7.6-10.4 10.4-14.1s2.8-5.9-2.8-5.9h-51l-41.1 55.8h100.1c33.1 0 51.5-22.5 57.2-30.3zm317.5-6.9 39.3-53.4h-62.2l-39.3 53.4zm-395.1 6.9h-95.3v6.4h90.6zm111-26.6c-2.8 3.8-7.5 10.4-10.3 14.2-1.4 2-4.1 5.5 4.6 5.5h45.6s7.3-10 13.5-18.4c8.4-11.4.7-35-29.2-35h-117.9l-20.4 27.8h111.4c5.6 0 5.5 2.2 2.7 5.9zm-206.3 56.8h73.1l4.7-6.4h-77.8zm323 0h58.7l22.3-30.2h-58.7c-.1 0-22.3 30.2-22.3 30.2zm222 .1h95v-6.4h-90.3zm22.3-30.3-4.7 6.4h77.4v-6.4zm-13.5 18.3h86.2v-6.4h-81.5zm-164.2-78.6-22.5 30.6h-26.2l22.5-30.6h-58.7l-39.3 53.4h143.6l39.3-53.4zm33.5 60.3s-4.3 5.9-6.4 8.7c-7.4 10-.9 21.6 23.2 21.6h94.3l22.3-30.3z"/></svg>