<svg viewBox="0 0 640 512" xmlns="http://www.w3.org/2000/svg"><path d="m386.061 228.496c1.834 9.692 3.143 19.384 3.143 31.956 0 109.753-73.605 187.548-184.404 187.548-106.084 0-192-85.915-192-192s85.916-192 192-192c51.864 0 95.083 18.859 128.611 50.292l-52.126 50.03c-14.145-13.621-39.028-29.599-76.485-29.599-65.484 0-118.92 54.221-118.92 121.277s53.436 121.277 118.92 121.277c75.961 0 104.513-54.745 108.965-82.773h-108.965v-66.009h181.261zm185.406 6.437v-55.733h-56.001v55.733h-55.733v56.001h55.733v55.733h56.001v-55.733h55.733v-56.001z"/></svg>