<svg viewBox="0 0 448 512" xmlns="http://www.w3.org/2000/svg"><path d="m392 32h-336c-30.9 0-56 25.1-56 56v336c0 30.9 25.1 56 56 56h336c30.9 0 56-25.1 56-56v-336c0-30.9-25.1-56-56-56zm-108.3 82.1c0-19.8 29.9-19.8 29.9 0v199.5c0 19.8-29.9 19.8-29.9 0zm-74.6-7.5c0-19.8 29.9-19.8 29.9 0v216.5c0 19.8-29.9 19.8-29.9 0zm-74.7 7.5c0-19.8 29.9-19.8 29.9 0v199.5c0 19.8-29.9 19.8-29.9 0zm-74.7 29.9c0-19.8 29.9-19.8 29.9 0v134.3c0 19.8-29.9 19.8-29.9 0zm323.4 227.8c-72.8 63-241.7 65.4-318.1 0-15-12.8 4.4-35.5 19.4-22.7 65.9 55.3 216.1 53.9 279.3 0 14.9-12.9 34.3 9.8 19.4 22.7zm5.2-93.5c0 19.8-29.9 19.8-29.9 0v-134.3c0-19.8 29.9-19.8 29.9 0z"/></svg>