<svg viewBox="0 0 496 512" xmlns="http://www.w3.org/2000/svg"><path d="m248 8c-136.96 0-248 111.04-248 248 0 136.97 111.04 248 248 248s248-111.03 248-248c0-136.96-111.04-248-248-248zm85.46 267.67 59.66 59.67v87.05l-26.07 19.23-26.05-19.23v-65.46l-33.44-33.44-33.44 33.44v65.46l-26.12 19.23-26.12-19.23v-65.46l-33.44-33.44-33.44 33.43v65.46l-26.07 19.23-26.06-19.23v-87.05l59.47-59.47v-87.86l59.5-59.5v-75.62l26.06-19.23 26.06 19.23v75.64l59.5 59.5m-85.56-11.86 33.44 33.44v66.4l-33.34 33.33-33.54-33.54v-66.2z"/></svg>