<svg viewBox="0 0 432 512" xmlns="http://www.w3.org/2000/svg"><path d="m407 111.9-98.5-9 14-33.4c10.4-23.5-10.8-40.4-28.7-37l-271.3 44.4c-15.1 2.7-26 18.3-21.4 36.6l105.1 348.3c6.5 21.3 36.7 24.2 47.7 7l35.3-80.8 235.2-231.3c16.4-16.8 4.3-42.9-17.4-44.8zm-109.4-58.3c5.1-.7 7.5 2.5 5.2 7.4l-16.8 39.9-177.4-16.3zm-274.9 54.3c-3.1-5.1 1-10 6.1-9.1l248.7 22.7-96.9 230.7zm113.3 348.5c-2.6 4-7.9 3.1-9.4-1.2l-83.1-275.5 127.7 197.6c-7 15-35.2 79.1-35.2 79.1zm272.8-314.5-198.7 195.4 89.7-213.7 106.4 9.7c4 1.1 5.7 5.3 2.6 8.6z"/></svg>