<svg viewBox="0 0 448 512" xmlns="http://www.w3.org/2000/svg"><path d="m350.5 157.7-54.2-46.1 73.4-39 78.3 44.2zm-158.5-35.6 45.7-28.2 34.7 34.6-55.4 29zm-65.1 6.6 31.9-22.1 17.2 28.4-36.7 22.5zm-23.3 88.2-8.8-34.8 29.6-18.3 13.1 35.3zm-21.2-83.7 23.9-18.1 8.9 24-26.7 18.3zm-23.4 73.3-3.6-28.4 22.3-15.5 6.1 28.7zm-30.6 16.6 20.8-12.8 3.3 33.4-22.9 12zm-27 44.9 19.2-10.2.4 38.2-21 8.8zm59.1 59.3-28.3 8.3-1.6-46.8 25.1-10.7zm38.5-64.1-31.1 13-5.2-40.8 27.4-14.4zm24.2 113.8-41.6 5.9-8.1-63.5 35.2-10.8zm28.5-139.9 21.2 57.1-46.2 13.6-13.7-54.1zm85.7 230.5-70.9-3.3-24.3-95.8 55.2-8.6zm-84.9-279.7 42.2-22.4 28 45.9-50.8 21.3zm41 94.9 61.3-18.7 52.8 86.6-79.8 11.3zm51.4-85.6 67.3-28.8 65.5 65.4-88.6 26.2z"/></svg>