<svg viewBox="0 0 640 512" xmlns="http://www.w3.org/2000/svg"><path d="m539.71 237.308c3.064-12.257 4.29-24.821 4.29-37.384 0-92.542-75.382-167.924-167.924-167.924-77.22 0-144.634 53.012-163.02 127.781-15.322-13.176-34.934-20.53-55.157-20.53-46.271 0-83.962 37.69-83.962 83.961 0 7.354.92 15.015 3.065 22.369-42.9 20.225-70.785 63.738-70.785 111.234-.001 68.028 55.463 123.185 123.184 123.185h381.198c67.72 0 123.184-55.157 123.184-123.184.001-56.384-38.916-106.025-94.073-119.508zm-339.83 164.246c0 8.274-7.048 15.321-15.321 15.321h-30.949c-8.274 0-15.321-7.048-15.321-15.321v-110.928c0-8.273 7.048-15.321 15.321-15.321h30.949c8.274 0 15.321 7.048 15.321 15.321zm89.477 0c0 8.274-7.048 15.321-15.322 15.321h-30.949c-8.274 0-15.321-7.048-15.321-15.321v-131.458c0-8.274 7.048-15.321 15.321-15.321h30.949c8.274 0 15.322 7.048 15.322 15.321zm89.477 0c0 8.274-7.047 15.321-15.321 15.321h-30.949c-8.274 0-15.322-7.048-15.322-15.321v-162.714c0-8.274 7.048-15.321 15.322-15.321h30.949c8.274 0 15.321 7.048 15.321 15.321zm87.027 0c0 8.274-7.048 15.321-15.322 15.321h-28.497c-8.274 0-15.321-7.048-15.321-15.321v-224.613c0-8.579 7.047-15.628 15.321-15.628h28.497c8.274 0 15.322 7.048 15.322 15.628z"/></svg>