<svg viewBox="0 0 448 512" xmlns="http://www.w3.org/2000/svg"><path d="m395.208 221.583h10.792v33.542h-10.792zm0-9.625h10.792v-33.542h-10.792zm0 86.333h10.792v-33.541h-10.792zm-36.458-163.041h-33.542v10.5h33.542zm36.458 206.208h10.792v-33.542h-10.792zm-83.708-206.208h-33.542v10.5h33.542zm-47.25 0h-33.25v10.5h33.25zm-47.25 0h-33.25v10.5h33.25zm178.208 33.542h10.792v-33.542h-33.542v10.5h22.75zm-255.792 259 30.625 13.417 4.375-9.917-30.625-13.417zm39.667 17.208 30.334 13.708 4.374-9.916-30.333-13.417zm216.125-60.375h10.792v-33.542h-10.792zm-334.833 8.167 30.625 13.416 4.375-9.624-30.625-13.709-4.375 9.917zm39.666 17.499 30.625 13.417 4.375-9.917-30.625-13.416zm132.417 38.501 4.375 9.916 30.626-13.708-4.375-9.625zm118.417-52.208 4.375 9.624 30.624-13.416-4.374-9.917zm-39.375 17.207 4.375 9.917 30.625-13.417-4.374-9.916zm-39.667 17.501 4.375 9.917 30.625-13.417-4.375-9.917zm39.667-384.709h-33.542v10.5h33.542zm94.209 0h-33.251v10.5h33.251zm-188.709 0h-33.25v10.5h33.25zm141.75 0h-33.542v10.5h33.542zm-94.5 0h-33.25v10.5h33.25zm183.75-42.875v406l-226.334 98.584-221.666-98.584v-406h448zm-29.166 116.958h-389.668v270.084l192.792 85.75 196.875-85.75v-270.084zm0-87.791h-389.668v58.625h389.667v-58.625zm-343.292 13.708h-33.251v10.5h33.251zm94.5 0h-33.542v10.5h33.542zm-47.251 0h-33.541v10.5h33.542v-10.5zm7.584 236.542c0-50.167 41.125-91.292 91.292-91.292 50.458 0 91.292 41.125 91.292 91.292 0 50.458-40.833 91.292-91.292 91.292-50.167-.001-91.292-40.834-91.292-91.292zm120.75 18.084c0 13.125-23.917 14.291-32.666 14.291-12.25 0-29.75-2.625-35.875-14.875h-.875l-9.043 18.375c14.876 9.333 29.167 12.25 47.25 12.25 19.542 0 51.042-5.833 51.042-31.209 0-48.125-78.458-16.333-78.458-37.916 0-13.125 20.708-14.875 29.75-14.875 10.791 0 29.166 3.208 35.583 13.124h.875l8.751-16.916c-15.167-6.125-27.417-11.959-44.334-11.959-20.125 0-49.583 6.417-49.583 31.792 0 44.334 77.583 11.959 77.583 37.918zm-128.334-165.959h-33.541v10.5h33.542v-10.5zm-69.999 10.5h22.75v-10.5h-33.542v33.542h10.792zm0 32.666h-10.792v33.542h10.792zm117.25-43.166h-33.542v10.5h33.542zm-117.25 86.333h-10.792v33.542h10.792zm0 86.334h-10.792v33.542h10.792zm0-43.167h-10.792v33.542h10.792zm0 86.333h-10.792v33.542h10.792z"/></svg>