<svg viewBox="0 0 448 512" xmlns="http://www.w3.org/2000/svg"><path d="m244.2 217.5 19.3 57.7-59.8 20-19.3-57.7zm41.4 243.7c-154 46.2-220.6 10.4-266.8-143.6s-10.4-220.6 143.6-266.8c154-46.2 220.6-10.4 266.8 143.6s10.4 220.6-143.6 266.8zm80.6-196.2c-3.9-12.2-17.2-18.6-29.4-14.7l-29 9.7-19.3-57.7 29-9.7c12.2-3.9 18.6-17.2 14.7-29.4s-17.2-18.6-29.4-14.7l-29 9.7-10-30.1c-3.9-12.2-17.2-18.6-29.4-14.7s-18.6 17.2-14.7 29.4l10 30.1-59.8 20.1-10-30.1c-3.9-12.2-17.2-18.6-29.4-14.7s-18.6 17.2-14.7 29.4l10 30.1-29 9.7c-12.2 3.9-18.6 17.2-14.7 29.4 3.2 9.3 12.2 15.4 21.5 15.8 4.3.6 7.7-1 36.9-10.7l19.3 57.7-29 9.7c-12.2 3.9-18.6 17.2-14.7 29.4 3.2 9.3 12.2 15.4 21.5 15.8 4.3.6 7.7-1 36.9-10.7l10 30.1c3.7 10.8 15.8 18.6 29.4 14.7 12.2-3.9 18.6-17.2 14.7-29.4l-10-30.1 59.8-20.1 10 30.1c3.7 10.8 15.8 18.6 29.4 14.7 12.2-3.9 18.6-17.2 14.7-29.4l-10-30.1 29-9.7c12.2-4.2 18.6-17.5 14.7-29.6z"/></svg>