<svg viewBox="0 0 441.03 512" xmlns="http://www.w3.org/2000/svg"><path d="m199.74 12.29c9.74-5.64 25.59-5.73 35.39-.21l188.13 105.95c9.81 5.52 17.76 19.14 17.76 30.38v213.87c0 11.26-7.93 24.89-17.71 30.46l-188.22 107.14c-9.78 5.57-25.58 5.48-35.29-.21l-182.22-106.72c-9.71-5.69-17.58-19.43-17.58-30.68v-213.86c0-11.26 7.9-24.96 17.63-30.59zm-76.2 196.71c-15.69 0-31.39.14-47.08.14v99.87h18.83v-29.39h28.25c48.94 0 48.79-70.62 0-70.62zm137.96 98.73-30.25-34.1c36.4-7.39 34.26-64.21-10.7-64.49-15.84 0-31.67-.14-47.51-.14v100.01h18.83v-33.38h18.13l29.1 33.38h22.4zm-40.94-81.04c22.98 0 22.9 31.96 0 31.96h-28.68v-31.96zm-94.07-1.57c20.85 0 20.78 38.24 0 38.24h-31.81v-38.23zm189.65-17.97c-67.4 0-69.86 104.15 0 104.15 68.39-.01 68.33-104.15 0-104.15zm0 17.12c43.43 0 44.1 69.76 0 69.76-44.12 0-43.74-69.76 0-69.76z"/></svg>