<svg viewBox="0 0 496 512" xmlns="http://www.w3.org/2000/svg"><path d="m202.45 108.42v81.61h-163.51l48.22 61.91h114.73v196.75h64.61v-195.73h83.27v-62.69h-83.18v-19.17h145.62v-62.68zm4.86 6h197.77v50.68h-145.64v30.93h83.18v50.93h-83.26v195.73h-52.73v-196.75h-116.77l-39.95-49.91h157.4zm40.68-105.62c-136.96 0-247.99 111.03-247.99 248s111.03 248 247.99 248 248.01-111.04 248.01-248-111.04-248-248.01-248zm.02 13.24c129.66 0 234.76 105.12 234.76 234.78s-105.1 234.76-234.76 234.76-234.78-105.11-234.78-234.77 105.12-234.77 234.78-234.77zm0 7.89c-125.3 0-226.89 101.57-226.89 226.87s101.59 226.89 226.89 226.89 226.87-101.59 226.87-226.89-101.57-226.87-226.87-226.87zm-.02 13.3c117.95 0 213.56 95.62 213.56 213.56s-95.62 213.56-213.56 213.56-213.56-95.6-213.56-213.55 95.61-213.57 213.56-213.57zm-73.32 104.8 15.66 18.05-22.16-9.45-12.33 20.47 2.15-23.99-23.28-5.4 23.48-5.37-2.06-23.81 12.37 20.67 22.01-9.32zm-47.14-46.54 8.01 12.4 12.69-5.86-9.32 11.45 9.5 10.25-13.77-5.32-6.82 12.2.81-14.74-13.71-2.71 14.27-3.78zm250.77 75.59 11.99 19.56 20.88-9.11-14.9 17.45 15.11 17.04-21.2-8.78-11.54 19.64 1.8-22.87-22.24-4.9 22.31-5.36zm-107.05 98.45 13.86-3.22-1.28-14.17 7.35 12.18 13.08-5.59-9.31 10.75 9.36 10.71-13.1-5.54-7.29 12.21 1.22-14.17zm-125.43 6.5 23.73-3.87-1.73-24.53 11.01 21.38 22.79-9.22-16.93 17.08 15.81 18.83-21.47-10.82-13.02 20.86 3.66-23.77zm63.44-165.66v81.61h-155.1l36.72 46.01h117.7v196.75h48.82v-195.73h83.27v-47.03h-83.27v-34.83h145.73v-46.78zm10.86 11.2h171.8v24.36h-145.04v56.23h82.93v23.94h-82.93v197.42h-26.76v-197.42h-123.81l-20.09-23.94h143.9z"/></svg>