<svg viewBox="0 0 512 512" xmlns="http://www.w3.org/2000/svg"><path d="m462.799 322.374c56.211 64.308 4.162 157.626-91.855 157.626-39.602 0-78.824-17.687-100.142-50.04-6.887.356-22.702.356-29.59 0-21.364 32.421-60.624 50.04-100.143 50.04-95.49 0-148.348-92.996-91.855-157.626-79.139-131.851 31.265-290.374 206.792-290.374 175.632 0 285.87 158.626 206.793 290.374zm-339.647-82.972h41.529v-58.075h-41.529zm217.18 86.072v-23.839c-60.506 20.915-132.355 9.198-187.589-33.971l.246 24.897c51.101 46.367 131.746 57.875 187.343 32.913zm-150.753-86.072h166.058v-58.075h-166.058z"/></svg>