<svg viewBox="0 0 448 512" xmlns="http://www.w3.org/2000/svg"><path d="m448 75.2v361.7c0 24.3-19 43.2-43.2 43.2h-361.6c-23.9-.1-43.2-18.7-43.2-43.3v-361.6c0-24.1 18.8-43.2 43.2-43.2h361.7c24 0 43.1 18.8 43.1 43.2zm-37.3 361.6v-361.6c0-3-2.6-5.8-5.8-5.8h-9.3l-110.3 74.6-61.3-49.9-61.2 49.9-110.3-74.7h-9.3c-3.2 0-5.8 2.8-5.8 5.8v361.7c0 3 2.6 5.8 5.8 5.8h361.7c3.2.1 5.8-2.7 5.8-5.8zm-260.5-250.8v37h-73.5v-37zm0 74.4v37.3h-73.5v-37.3zm11.1-147.3 54-43.7h-118.5zm210 72.9v37h-196v-37zm0 74.4v37.3h-196v-37.3zm-84.6-147.3 64.5-43.7h-118.4zm84.6 221.9v37.3h-99.4v-37.3z"/></svg>