<svg viewBox="0 0 384 512" xmlns="http://www.w3.org/2000/svg"><path d="m192 160c44.2 0 80-35.8 80-80s-35.8-80-80-80-80 35.8-80 80 35.8 80 80 80zm-53.4 248.8 25.6-32-61.5-51.2-45.9 57.4c-11.4 14.2-11.7 34.4-.8 49l48 64c7.9 10.5 19.9 16 32 16 8.3 0 16.8-2.6 24-8 17.7-13.2 21.2-38.3 8-56zm142.7-83.2-61.5 51.2 25.6 32-29.4 39.2c-13.2 17.7-9.7 42.8 8 56 7.2 5.4 15.6 8 24 8 12.2 0 24.2-5.5 32-16l48-64c10.9-14.6 10.6-34.8-.8-49zm95.4-180.6c-12.7-18.1-37.6-22.4-55.7-9.8l-40.6 28.5c-52.7 37-124.2 37-176.8 0l-40.6-28.4c-18.1-12.7-43-8.3-55.7 9.7-12.7 18.1-8.3 43 9.7 55.7l40.6 28.5c17 11.9 35.4 20.9 54.4 27.9v30.9h160v-30.8c19-7 37.4-16 54.4-27.9l40.6-28.5c18.1-12.8 22.4-37.7 9.7-55.8z"/></svg>