<svg viewBox="0 0 496 512" xmlns="http://www.w3.org/2000/svg"><path d="m212.3 10.3c-43.8 6.3-86.2 24.1-122.2 53.8l77.4 77.4c27.8-35.8 43.3-81.2 44.8-131.2zm35.7 211.7 157.9-157.9c-42.4-35-93.6-53.5-145.5-56.1-1.2 63.9-21.5 122.3-58.7 167.7zm-191.9-123.9c-29.7 36-47.5 78.4-53.8 122.2 50-1.5 95.5-17 131.2-44.8zm272.2 204.2c45.3-37.1 103.7-57.4 167.7-58.7-2.6-51.9-21.1-103.1-56.1-145.5l-157.9 157.9zm-80.3-12.3-157.9 157.9c42.4 34.9 93.6 53.5 145.5 56.1 1.3-64 21.6-122.4 58.7-167.7zm191.9 123.9c29.7-36 47.5-78.4 53.8-122.2-50.1 1.6-95.5 17.1-131.2 44.8zm-272.2-204.2c-45.4 37.2-103.8 57.6-167.7 58.7 2.6 51.9 21.1 103.1 56.1 145.5l157.9-157.9zm116 292c43.8-6.3 86.2-24.1 122.2-53.8l-77.4-77.4c-27.7 35.7-43.2 81.2-44.8 131.2z"/></svg>