<svg viewBox="0 0 512 512" xmlns="http://www.w3.org/2000/svg"><path d="m440.5 88.5-52 52 26.5 26.5c9.4 9.4 9.4 24.6 0 33.9l-17.4 17.4c11.8 26.1 18.4 55.1 18.4 85.6 0 114.9-93.1 208-208 208s-208-93-208-207.9 93.1-208 208-208c30.5 0 59.5 6.6 85.6 18.4l17.4-17.4c9.4-9.4 24.6-9.4 33.9 0l26.5 26.5 52-52zm59.5-28.5h-24c-6.6 0-12 5.4-12 12s5.4 12 12 12h24c6.6 0 12-5.4 12-12s-5.4-12-12-12zm-60-60c-6.6 0-12 5.4-12 12v24c0 6.6 5.4 12 12 12s12-5.4 12-12v-24c0-6.6-5.4-12-12-12zm33.9 55 17-17c4.7-4.7 4.7-12.3 0-17s-12.3-4.7-17 0l-17 17c-4.7 4.7-4.7 12.3 0 17 4.8 4.7 12.4 4.7 17 0zm-67.8 0c4.7 4.7 12.3 4.7 17 0s4.7-12.3 0-17l-17-17c-4.7-4.7-12.3-4.7-17 0s-4.7 12.3 0 17zm67.8 34c-4.7-4.7-12.3-4.7-17 0s-4.7 12.3 0 17l17 17c4.7 4.7 12.3 4.7 17 0s4.7-12.3 0-17zm-361.9 183c0-35.3 28.7-64 64-64 8.8 0 16-7.2 16-16s-7.2-16-16-16c-52.9 0-96 43.1-96 96 0 8.8 7.2 16 16 16s16-7.2 16-16z"/></svg>