<svg viewBox="0 0 448 512" xmlns="http://www.w3.org/2000/svg"><path d="m400 0h-352c-25.6 0-48 22.4-48 48v416c0 25.6 22.4 48 48 48h352c25.6 0 48-22.4 48-48v-416c0-25.6-22.4-48-48-48zm-272 435.2c0 6.4-6.4 12.8-12.8 12.8h-38.4c-6.4 0-12.8-6.4-12.8-12.8v-38.4c0-6.4 6.4-12.8 12.8-12.8h38.4c6.4 0 12.8 6.4 12.8 12.8zm0-128c0 6.4-6.4 12.8-12.8 12.8h-38.4c-6.4 0-12.8-6.4-12.8-12.8v-38.4c0-6.4 6.4-12.8 12.8-12.8h38.4c6.4 0 12.8 6.4 12.8 12.8zm128 128c0 6.4-6.4 12.8-12.8 12.8h-38.4c-6.4 0-12.8-6.4-12.8-12.8v-38.4c0-6.4 6.4-12.8 12.8-12.8h38.4c6.4 0 12.8 6.4 12.8 12.8zm0-128c0 6.4-6.4 12.8-12.8 12.8h-38.4c-6.4 0-12.8-6.4-12.8-12.8v-38.4c0-6.4 6.4-12.8 12.8-12.8h38.4c6.4 0 12.8 6.4 12.8 12.8zm128 128c0 6.4-6.4 12.8-12.8 12.8h-38.4c-6.4 0-12.8-6.4-12.8-12.8v-166.4c0-6.4 6.4-12.8 12.8-12.8h38.4c6.4 0 12.8 6.4 12.8 12.8zm0-256c0 6.4-6.4 12.8-12.8 12.8h-294.4c-6.4 0-12.8-6.4-12.8-12.8v-102.4c0-6.4 6.4-12.8 12.8-12.8h294.4c6.4 0 12.8 6.4 12.8 12.8z"/></svg>