<svg viewBox="0 0 512 512" xmlns="http://www.w3.org/2000/svg"><path d="m497.5 92c-27.9-58.9-85.7-92-145.1-92-27.9 0-56.2 7.3-81.8 22.6l-27.5 16.4c-15.2 9.1-20.1 28.7-11 43.9l32.8 54.9c6 10 16.6 15.6 27.5 15.6 5.6 0 11.2-1.5 16.4-4.5l27.5-16.4c5.1-3.1 10.8-4.5 16.4-4.5 10.9 0 21.5 5.6 27.5 15.6 9.1 15.1 4.1 34.8-11 43.9l-353.6 210.1c-15.2 9.1-20.1 28.7-11 43.9l32.8 54.9c6 10 16.6 15.6 27.5 15.6 5.6 0 11.2-1.5 16.4-4.5l347.3-206.5c71.7-42.9 104.6-133.5 68.9-209zm-177.7 13-2.5 1.5-20.5-61.5c9.7-4.7 19.8-8.1 30.3-10.2l20.6 61.8c-9.8.8-19.4 3.3-27.9 8.4zm-173.9 326.8-60.5-38.5 30.8-18.3 60.5 38.5zm107.5-63.9-60.5-38.5 30.8-18.3 60.5 38.5zm110.9-65.9-60.5-38.5 30.8-18.3 60.5 38.5zm20.4-197.3 46-46c8.4 6.5 16 14.1 22.6 22.6l-45.7 45.7c-5.7-9.3-13.7-16.9-22.9-22.3zm82.1 107.8-59.5-19.8c3.2-5.3 5.8-10.9 7.4-17.1 1.1-4.5 1.7-9.1 1.8-13.6l60.4 20.1c-2.1 10.4-5.5 20.6-10.1 30.4z"/></svg>