<svg viewBox="0 0 512 512" xmlns="http://www.w3.org/2000/svg"><path d="m458.622 255.92 45.985-45.005c13.708-12.977 7.316-36.039-10.664-40.339l-62.65-15.99 17.661-62.015c4.991-17.838-11.829-34.663-29.661-29.671l-61.994 17.667-15.984-62.671c-4.23-17.699-27.55-24.172-40.325-10.668l-44.99 46.342-44.989-46.341c-12.63-13.351-36.047-7.234-40.325 10.668l-15.984 62.671-61.995-17.667c-17.837-4.994-34.651 11.837-29.661 29.671l17.661 62.015-62.65 15.99c-17.988 4.301-24.367 27.367-10.665 40.338l45.985 45.005-45.985 45.004c-13.708 12.977-7.316 36.039 10.664 40.339l62.65 15.99-17.661 62.015c-4.991 17.838 11.829 34.663 29.661 29.671l61.994-17.667 15.984 62.671c4.439 18.575 27.696 24.018 40.325 10.668l44.991-46.001 44.989 46.001c12.5 13.488 35.987 7.486 40.325-10.668l15.984-62.671 61.994 17.667c17.836 4.994 34.651-11.837 29.661-29.671l-17.661-62.015 62.65-15.99c17.987-4.302 24.366-27.367 10.664-40.339z"/></svg>