<svg viewBox="0 0 512 512" xmlns="http://www.w3.org/2000/svg"><path d="m504.5 171.95-36.2-36.41c-10-10.05-26.21-10.05-36.2 0l-240.1 241.48-112.1-112.74c-10-10.06-26.21-10.06-36.2 0l-36.2 36.41c-10 10.05-10 26.36 0 36.41l166.4 167.36c10 10.06 26.21 10.06 36.2 0l294.4-296.09c10-10.06 10-26.36 0-36.42zm-337.93 110.76c6.84 7.02 18.18 7.02 25.21.18l212.07-210.27c7.02-6.84 7.02-18.18.18-25.21l-41.95-42.12c-6.84-7.02-18.18-7.02-25.21-.18l-157.16 156.08-68.23-68.77c-6.84-7.02-18.18-7.02-25.2-.18l-42.13 41.77c-7.02 6.84-7.02 18.18-.18 25.2z"/></svg>