<svg viewBox="0 0 512 512" xmlns="http://www.w3.org/2000/svg"><path d="m256 256v64h-64v-64zm0-256h-64v64h64zm0 256h64v-64h-64zm128-256h-64v64h64zm0 512h64v-64h-64zm128-64v-64h-64v64zm-384 64h64v-64h-64zm0-512h-64v64h64zm384 192v-64h-64v64zm0 128v-64h-64v64zm-512 192h64v-64h-64zm0-448v64h64v-64zm0 128v64h64v-64zm0 128v64h64v-64zm256 192h64v-64h-64zm-64-128v64h64v-64zm64-192v-64h-64v64zm-192 192v64h64v-64zm64-128h-64v64h64zm256 128h64v-64h-64zm128-384h-64v64h64zm-128 256h64v-64h-64zm0-192v64h64v-64zm-64 320v64h64v-64zm-192-64v64h64v-64zm128 0v64h64v-64zm-64-128h-64v64h64zm-64-64h-64v64h64zm192 192h64v-64h-64zm-128-192v-64h-64v64zm128 0v-64h-64v64zm0 64h64v-64h-64z"/></svg>