<svg viewBox="0 0 384 512" xmlns="http://www.w3.org/2000/svg"><path d="m336 64h-80c0-35.3-28.7-64-64-64s-64 28.7-64 64h-80c-26.5 0-48 21.5-48 48v352c0 26.5 21.5 48 48 48h288c26.5 0 48-21.5 48-48v-352c0-26.5-21.5-48-48-48zm-240 360c-13.3 0-24-10.7-24-24s10.7-24 24-24 24 10.7 24 24-10.7 24-24 24zm0-96c-13.3 0-24-10.7-24-24s10.7-24 24-24 24 10.7 24 24-10.7 24-24 24zm0-96c-13.3 0-24-10.7-24-24s10.7-24 24-24 24 10.7 24 24-10.7 24-24 24zm96-192c13.3 0 24 10.7 24 24s-10.7 24-24 24-24-10.7-24-24 10.7-24 24-24zm128 368c0 4.4-3.6 8-8 8h-144c-4.4 0-8-3.6-8-8v-16c0-4.4 3.6-8 8-8h144c4.4 0 8 3.6 8 8zm0-96c0 4.4-3.6 8-8 8h-144c-4.4 0-8-3.6-8-8v-16c0-4.4 3.6-8 8-8h144c4.4 0 8 3.6 8 8zm0-96c0 4.4-3.6 8-8 8h-144c-4.4 0-8-3.6-8-8v-16c0-4.4 3.6-8 8-8h144c4.4 0 8 3.6 8 8z"/></svg>