<svg viewBox="0 0 480 512" xmlns="http://www.w3.org/2000/svg"><path d="m106.75 215.06-105.55 155.89c-3.08 5 .1 11.5 5.93 12.14l208.26 22.07zm-99.34 100.37 75.29-122.35-76.64-45.98c-2.67-1.6-6.06.32-6.06 3.43v162.81c0 4.03 5.29 5.53 7.41 2.09zm10.84 108.17 194.4 87.66c5.3 2.45 11.35-1.43 11.35-7.26v-65.67l-203.55-22.3c-4.45-.5-6.23 5.59-2.2 7.57zm81.22-257.78 79.93-142.94c4.34-7.06-3.59-15.25-10.78-11.14l-150.81 98.61c-2.47 1.62-2.39 5.26.13 6.78zm140.53 10.18h109.21l-95.58-168.38c-3.13-5.08-8.38-7.62-13.63-7.62s-10.5 2.54-13.63 7.62l-95.58 168.38zm233.94-28.9-76.64 45.99 75.29 122.35c2.11 3.44 7.41 1.94 7.41-2.1v-162.81c0-3.11-3.39-5.03-6.06-3.43zm-93.41 18.72 81.53-48.7c2.53-1.52 2.6-5.16.13-6.78l-150.81-98.6c-7.19-4.11-15.12 4.08-10.78 11.14zm79.02 250.21-203.55 22.29v65.67c0 5.84 6.05 9.71 11.35 7.26l194.4-87.66c4.03-1.97 2.25-8.06-2.2-7.56zm-86.3-200.97-108.63 190.1 208.26-22.07c5.83-.65 9.01-7.14 5.93-12.14zm-133.25-7.06h-100.43l100.43 175.75 100.43-175.75z"/></svg>