<svg viewBox="0 0 496 512" xmlns="http://www.w3.org/2000/svg"><path d="m248 8c-137 0-248 111-248 248s111 248 248 248 248-111 248-248-111-248-248-248zm-96 206.6-28.7 28.7c-14.8 14.8-37.8-7.5-22.6-22.6l28.7-28.7-28.7-28.7c-15-15 7.7-37.6 22.6-22.6l28.7 28.7 28.7-28.7c15-15 37.6 7.7 22.6 22.6l-28.7 28.7 28.7 28.7c15.2 15.2-7.9 37.4-22.6 22.6zm96 201.4c-35.3 0-64-28.7-64-64s28.7-64 64-64 64 28.7 64 64-28.7 64-64 64zm147.3-195.3c15.2 15.2-7.9 37.4-22.6 22.6l-28.7-28.7-28.7 28.7c-14.8 14.8-37.8-7.5-22.6-22.6l28.7-28.7-28.7-28.7c-15-15 7.7-37.6 22.6-22.6l28.7 28.7 28.7-28.7c15-15 37.6 7.7 22.6 22.6l-28.7 28.7z"/></svg>