<svg viewBox="0 0 576 512" xmlns="http://www.w3.org/2000/svg"><path d="m569.517 440.013c18.458 31.994-4.711 71.987-41.577 71.987h-479.886c-36.937 0-59.999-40.055-41.577-71.987l239.946-416.028c18.467-32.009 64.72-31.951 83.154 0zm-281.517-86.013c-25.405 0-46 20.595-46 46s20.595 46 46 46 46-20.595 46-46-20.595-46-46-46zm-43.673-165.346 7.418 136c.347 6.364 5.609 11.346 11.982 11.346h48.546c6.373 0 11.635-4.982 11.982-11.346l7.418-136c.375-6.874-5.098-12.654-11.982-12.654h-63.383c-6.884 0-12.356 5.78-11.981 12.654z"/></svg>