<svg viewBox="0 0 512 512" xmlns="http://www.w3.org/2000/svg"><path d="m64 128h-32c-17.67 0-32 14.33-32 32v320c0 17.67 14.33 32 32 32h32c17.67 0 32-14.33 32-32v-320c0-17.67-14.33-32-32-32zm416 32v-82.75c0-8.49-3.37-16.62-9.37-22.63l-45.26-45.25c-6-6-14.14-9.37-22.63-9.37h-242.74c-17.67 0-32 14.33-32 32v448c0 17.67 14.33 32 32 32h320c17.67 0 32-14.33 32-32v-288c0-17.67-14.33-32-32-32zm-192 272c0 8.84-7.16 16-16 16h-32c-8.84 0-16-7.16-16-16v-32c0-8.84 7.16-16 16-16h32c8.84 0 16 7.16 16 16zm0-128c0 8.84-7.16 16-16 16h-32c-8.84 0-16-7.16-16-16v-32c0-8.84 7.16-16 16-16h32c8.84 0 16 7.16 16 16zm128 128c0 8.84-7.16 16-16 16h-32c-8.84 0-16-7.16-16-16v-32c0-8.84 7.16-16 16-16h32c8.84 0 16 7.16 16 16zm0-128c0 8.84-7.16 16-16 16h-32c-8.84 0-16-7.16-16-16v-32c0-8.84 7.16-16 16-16h32c8.84 0 16 7.16 16 16zm16-112h-256v-144h208v32c0 8.84 7.16 16 16 16h32z"/></svg>