<svg viewBox="0 0 576 512" xmlns="http://www.w3.org/2000/svg"><path d="m512 320s-64 92.65-64 128 28.66 64 64 64 64-28.65 64-64-64-128-64-128zm-9.37-102.94-207.69-207.69c-6.25-6.25-14.44-9.37-22.63-9.37s-16.38 3.12-22.62 9.37l-81.58 81.58-86.18-86.19c-6.25-6.25-16.38-6.25-22.62 0l-22.62 22.62c-6.24 6.25-6.24 16.38 0 22.62l86.19 86.18-94.76 94.76c-37.49 37.48-37.49 98.26 0 135.75l117.19 117.19c18.74 18.74 43.31 28.12 67.87 28.12 24.57 0 49.13-9.37 67.87-28.12l221.57-221.57c12.5-12.5 12.5-32.75.01-45.25zm-116.22 70.97h-320.48c1.36-3.84 3.57-7.98 7.43-11.83l13.15-13.15 81.61-81.61 58.6 58.6c12.49 12.49 32.75 12.49 45.24 0s12.49-32.75 0-45.24l-58.6-58.6 58.95-58.95 162.44 162.44z"/></svg>