<svg viewBox="0 0 640 512" xmlns="http://www.w3.org/2000/svg"><path d="m639.4 433.6c-8.4-20.4-31.8-30.1-52.2-21.6l-22.1 9.2-38.7-101.9c47.9-35 64.8-100.3 34.5-152.8l-86.6-150.5c-8-13.9-25.1-19.7-40-13.6l-114.3 47.4-114.3-47.4c-14.9-6.2-32-.3-40 13.6l-86.6 150.5c-30.2 52.5-13.4 117.8 34.5 152.7l-38.7 101.9-22.1-9.2c-20.4-8.5-43.7 1.2-52.2 21.6-1.7 4.1.2 8.8 4.3 10.5l162.3 67.4c4.1 1.7 8.7-.2 10.4-4.3 8.4-20.4-1.2-43.8-21.6-52.3l-22.1-9.2 39.4-103.6c4.4.5 8.8 1.3 13.1 1.3 51.7 0 99.4-33.1 113.4-85.3l20.2-75.4 20.2 75.4c14 52.2 61.7 85.3 113.4 85.3 4.3 0 8.7-.8 13.1-1.3l39.3 103.6-22.1 9.2c-20.4 8.5-30.1 31.9-21.6 52.3 1.7 4.1 6.4 6 10.4 4.3l162.4-67.4c4-1.7 6-6.3 4.3-10.4zm-363.5-271.5-112.1-46.5 36.5-63.4 94.5 39.2zm88.2 0-18.9-70.7 94.5-39.2 36.5 63.4z"/></svg>