<svg viewBox="0 0 496 512" xmlns="http://www.w3.org/2000/svg"><path d="m248 8c-137 0-248 111-248 248s111 248 248 248 248-111 248-248-111-248-248-248zm-104 392h-8c-17.7 0-32-14.3-32-32v-8h40zm0-56h-40v-8c0-17.7 14.3-32 32-32h8zm-8-136c0-17.7 14.3-32 32-32s32 14.3 32 32-14.3 32-32 32-32-14.3-32-32zm72 192h-48v-40h48zm0-56h-48v-40h48zm64 56h-48v-40h48zm0-56h-48v-40h48zm64 56h-48v-40h48zm0-56h-48v-40h48zm-8-104c-17.7 0-32-14.3-32-32s14.3-32 32-32 32 14.3 32 32-14.3 32-32 32zm64 128c0 17.7-14.3 32-32 32h-8v-40h40zm0-24h-40v-40h8c17.7 0 32 14.3 32 32z"/></svg>