<svg viewBox="0 0 512 512" xmlns="http://www.w3.org/2000/svg"><path d="m502.6 54.6-45.2-45.2c-12.5-12.5-32.8-12.5-45.3 0l-67.9 67.9c-12.5 12.5-12.5 32.8 0 45.3l-54.2 54.1c-45.4-29-100.4-28.9-133.5 4.2-9.7 9.7-16.4 21.2-20.5 33.9-6.1 18.8-23.5 33.1-42.7 34.9-24 2.3-46.3 11.6-63.4 28.8-46.2 46.1-37.9 129.1 18.3 185.3s139.2 64.4 185.3 18.3c17.2-17.1 26.5-39.4 28.8-63.5 1.8-19.1 16.1-36.6 34.9-42.7 12.7-4.1 24.2-10.8 33.9-20.5 33.1-33.1 33.1-88.1 4.2-133.5l54.2-54.2c12.5 12.5 32.8 12.5 45.3 0l67.9-67.9c12.4-12.4 12.4-32.7-.1-45.2zm-294.6 297.4c-26.5 0-48-21.5-48-48s21.5-48 48-48 48 21.5 48 48-21.5 48-48 48z"/></svg>