<svg viewBox="0 0 640 512" xmlns="http://www.w3.org/2000/svg"><path d="m204.8 230.4c-10.6-14.1-30.7-17-44.8-6.4s-17 30.7-6.4 44.8l38.1 50.8c4.8 6.4 4.1 15.3-1.5 20.9l-12.8 12.8c-6.7 6.7-17.6 6.2-23.6-1.1l-89.8-107.8v-148.4c0-17.7-14.3-32-32-32s-32 14.3-32 32v218.4c0 10.9 3.7 21.5 10.5 30l104.1 134.3c5 6.5 8.4 13.9 10.4 21.7 1.8 6.9 8.1 11.6 15.3 11.6h131.7c8.8 0 16-7.2 16-16v-112c0-27.7-9-54.6-25.6-76.8zm403.2-166.4c-17.7 0-32 14.3-32 32v148.4l-89.8 107.8c-6 7.2-17 7.7-23.6 1.1l-12.8-12.8c-5.6-5.6-6.3-14.5-1.5-20.9l38.1-50.8c10.6-14.1 7.7-34.2-6.4-44.8s-34.2-7.7-44.8 6.4l-57.6 76.8c-16.6 22.2-25.6 49.1-25.6 76.8v112c0 8.8 7.2 16 16 16h131.7c7.1 0 13.5-4.7 15.3-11.6 2-7.8 5.4-15.2 10.4-21.7l104.1-134.3c6.8-8.5 10.5-19.1 10.5-30v-218.4c0-17.7-14.3-32-32-32z"/></svg>