<svg viewBox="0 0 576 512" xmlns="http://www.w3.org/2000/svg"><path d="m544 96h-128v-64c0-17.7-14.3-32-32-32h-192c-17.7 0-32 14.3-32 32v64h-128c-17.7 0-32 14.3-32 32v368c0 8.8 7.2 16 16 16h544c8.8 0 16-7.2 16-16v-368c0-17.7-14.3-32-32-32zm-384 340c0 6.6-5.4 12-12 12h-40c-6.6 0-12-5.4-12-12v-40c0-6.6 5.4-12 12-12h40c6.6 0 12 5.4 12 12zm0-128c0 6.6-5.4 12-12 12h-40c-6.6 0-12-5.4-12-12v-40c0-6.6 5.4-12 12-12h40c6.6 0 12 5.4 12 12zm160 128c0 6.6-5.4 12-12 12h-40c-6.6 0-12-5.4-12-12v-40c0-6.6 5.4-12 12-12h40c6.6 0 12 5.4 12 12zm0-128c0 6.6-5.4 12-12 12h-40c-6.6 0-12-5.4-12-12v-40c0-6.6 5.4-12 12-12h40c6.6 0 12 5.4 12 12zm16-170c0 3.3-2.7 6-6 6h-26v26c0 3.3-2.7 6-6 6h-20c-3.3 0-6-2.7-6-6v-26h-26c-3.3 0-6-2.7-6-6v-20c0-3.3 2.7-6 6-6h26v-26c0-3.3 2.7-6 6-6h20c3.3 0 6 2.7 6 6v26h26c3.3 0 6 2.7 6 6zm144 298c0 6.6-5.4 12-12 12h-40c-6.6 0-12-5.4-12-12v-40c0-6.6 5.4-12 12-12h40c6.6 0 12 5.4 12 12zm0-128c0 6.6-5.4 12-12 12h-40c-6.6 0-12-5.4-12-12v-40c0-6.6 5.4-12 12-12h40c6.6 0 12 5.4 12 12z"/></svg>