<svg viewBox="0 0 576 512" xmlns="http://www.w3.org/2000/svg"><path d="m554.12 83.51-235.76-78.58a95.962 95.962 0 0 0 -60.71 0l-235.77 78.58a32.006 32.006 0 0 0 -21.88 30.36v49.01l265.02-79.51c15.03-4.5 30.92-4.5 45.98 0l265 79.51v-49.01c0-13.77-8.81-26-21.88-30.36zm-279.9 30.52-274.22 82.27v228.38c0 15 10.42 27.98 25.06 31.24l242.12 53.8a95.937 95.937 0 0 0 41.65 0l242.12-53.8c14.64-3.25 25.06-16.24 25.06-31.24v-228.39l-274.2-82.26c-9.04-2.72-18.59-2.72-27.59 0zm-146.22 116.08c0 3.61-2.41 6.77-5.89 7.72l-80 21.82c-5.09 1.38-10.11-2.45-10.11-7.72v-16.58c0-3.61 2.41-6.77 5.89-7.72l80-21.82c5.09-1.39 10.11 2.44 10.11 7.72zm144-39.28c0 3.61-2.41 6.77-5.89 7.72l-96 26.18c-5.09 1.39-10.11-2.44-10.11-7.72v-16.58c0-3.61 2.41-6.77 5.89-7.72l96-26.18c5.09-1.39 10.11 2.44 10.11 7.72zm176 22.7c0-5.28 5.02-9.11 10.11-7.72l80 21.82c3.48.95 5.89 4.11 5.89 7.72v16.58c0 5.28-5.02 9.11-10.11 7.72l-80-21.82a7.997 7.997 0 0 1 -5.89-7.72zm-144-39.27c0-5.28 5.02-9.11 10.11-7.72l96 26.18c3.48.95 5.89 4.11 5.89 7.72v16.58c0 5.28-5.02 9.11-10.11 7.72l-96-26.18a7.997 7.997 0 0 1 -5.89-7.72z"/></svg>