<svg viewBox="0 0 512.1 512" xmlns="http://www.w3.org/2000/svg"><path d="m164.1 160h-152.1c-6.6 0-12-5.4-12-12v-80c0-19.9 16.1-36 36-36h104c19.9 0 36 16.1 36 36v80c.1 6.6-5.3 12-11.9 12zm348-12v-80.1c0-19.9-16.1-36-36-36h-104c-19.9 0-36 16.1-36 36v80c0 6.6 5.4 12 12 12h152c6.6.1 12-5.3 12-11.9zm-164 44c-6.6 0-12 5.4-12 12v52c0 128.1-160 127.9-160 0v-52c0-6.6-5.4-12-12-12h-152c-6.7 0-12 5.4-12 12.1.1 21.4.6 40.3 0 53.3 0 150.6 136.2 246.6 256.8 246.6s255.1-96 255.1-246.7c-.6-12.8-.2-33 0-53.2 0-6.7-5.3-12.1-12-12.1z"/></svg>