<svg viewBox="0 0 288 512" xmlns="http://www.w3.org/2000/svg"><path d="m245.8 234.2c-19.9-19.9-44.2-32.8-69.8-38.6v-25.4h20c6.6 0 12-5.4 12-12v-40c0-6.6-5.4-12-12-12h-20v-24.8h23.9c10.7 0 16-12.9 8.5-20.5l-55.9-55.8c-4.7-4.7-12.3-4.7-17 0l-55.9 55.9c-7.6 7.6-2.2 20.5 8.5 20.5h23.9v24.7h-20c-6.6 0-12 5.4-12 12v40c0 6.6 5.4 12 12 12h20v25.4c-25.6 5.8-49.9 18.7-69.8 38.6-56.2 56.2-56.2 147.4 0 203.6s147.4 56.2 203.6 0c56.3-56.2 56.3-147.4 0-203.6zm-45.2 158.4c-31.2 31.2-81.9 31.2-113.1 0s-31.2-81.9 0-113.1 81.9-31.2 113.1 0c31.2 31.1 31.2 81.9 0 113.1z"/></svg>