<svg viewBox="0 0 480 512" xmlns="http://www.w3.org/2000/svg"><path d="m476.2 247.5-55.9-55.9c-7.6-7.6-20.5-2.2-20.5 8.5v23.9h-23.8v-20c0-6.6-5.4-12-12-12h-40c-6.6 0-12 5.4-12 12v20h-27.6c-5.8-25.6-18.7-49.9-38.6-69.8-56.2-56.2-147.4-56.2-203.6 0s-56.2 147.4 0 203.6 147.4 56.2 203.6 0c19.9-19.9 32.8-44.2 38.6-69.8h27.6v20c0 6.6 5.4 12 12 12h40c6.6 0 12-5.4 12-12v-20h23.9v23.9c0 10.7 12.9 16 20.5 8.5l55.9-55.9c4.6-4.7 4.6-12.3-.1-17zm-275.6 65.1c-31.2 31.2-81.9 31.2-113.1 0s-31.2-81.9 0-113.1 81.9-31.2 113.1 0c31.2 31.1 31.2 81.9 0 113.1z"/></svg>