<svg viewBox="0 0 512 512" xmlns="http://www.w3.org/2000/svg"><path d="m96 480h320v-352h-32v-48c0-26.51-21.49-48-48-48h-160c-26.51 0-48 21.49-48 48v48h-32zm96-384h128v32h-128zm320 80v256c0 26.51-21.49 48-48 48h-16v-352h16c26.51 0 48 21.49 48 48zm-448 304h-16c-26.51 0-48-21.49-48-48v-256c0-26.51 21.49-48 48-48h16zm288-208v32c0 8.837-7.163 16-16 16h-48v48c0 8.837-7.163 16-16 16h-32c-8.837 0-16-7.163-16-16v-48h-48c-8.837 0-16-7.163-16-16v-32c0-8.837 7.163-16 16-16h48v-48c0-8.837 7.163-16 16-16h32c8.837 0 16 7.163 16 16v48h48c8.837 0 16 7.163 16 16z"/></svg>