<svg viewBox="0 0 384 512" xmlns="http://www.w3.org/2000/svg"><path d="m109.25 173.25c24.99-24.99 24.99-65.52 0-90.51s-65.52-24.99-90.51 0c-24.99 24.99-24.99 65.52 0 90.51 25 25 65.52 25 90.51 0zm256 165.49c-24.99-24.99-65.52-24.99-90.51 0s-24.99 65.52 0 90.51 65.52 24.99 90.51 0c25-24.99 25-65.51 0-90.51zm-1.94-231.43-22.62-22.62c-12.5-12.5-32.76-12.5-45.25 0l-274.75 274.75c-12.5 12.5-12.5 32.76 0 45.25l22.62 22.62c12.5 12.5 32.76 12.5 45.25 0l274.75-274.75c12.5-12.49 12.5-32.75 0-45.25z"/></svg>