<svg viewBox="0 0 448 512" xmlns="http://www.w3.org/2000/svg"><path d="m448 432v-352c0-26.5-21.5-48-48-48h-352c-26.5 0-48 21.5-48 48v352c0 26.5 21.5 48 48 48h352c26.5 0 48-21.5 48-48zm-336-240c-8.84 0-16-7.16-16-16v-32c0-8.84 7.16-16 16-16h128c8.84 0 16 7.16 16 16v32c0 8.84-7.16 16-16 16zm0 96c-8.84 0-16-7.16-16-16v-32c0-8.84 7.16-16 16-16h224c8.84 0 16 7.16 16 16v32c0 8.84-7.16 16-16 16zm0 96c-8.84 0-16-7.16-16-16v-32c0-8.84 7.16-16 16-16h64c8.84 0 16 7.16 16 16v32c0 8.84-7.16 16-16 16z"/></svg>