<svg viewBox="0 0 448 512" xmlns="http://www.w3.org/2000/svg"><path d="m400 32h-352c-26.5 0-48 21.5-48 48v352c0 26.5 21.5 48 48 48h352c26.5 0 48-21.5 48-48v-352c0-26.5-21.5-48-48-48zm-240 336c0 8.84-7.16 16-16 16h-32c-8.84 0-16-7.16-16-16v-128c0-8.84 7.16-16 16-16h32c8.84 0 16 7.16 16 16zm96 0c0 8.84-7.16 16-16 16h-32c-8.84 0-16-7.16-16-16v-224c0-8.84 7.16-16 16-16h32c8.84 0 16 7.16 16 16zm96 0c0 8.84-7.16 16-16 16h-32c-8.84 0-16-7.16-16-16v-64c0-8.84 7.16-16 16-16h32c8.84 0 16 7.16 16 16z"/></svg>