<svg viewBox="0 0 640 512" xmlns="http://www.w3.org/2000/svg"><path d="m256.5 216.8 86.7 109.2s-16.6 102.4-76.6 150.1c-59.9 47.7-266.6 34.1-266.6 34.1s3.8-23.1 11-55.4l94.6-112.2c4-4.7-.9-11.6-6.6-9.5l-60.4 22.1c14.4-41.7 32.7-80 54.6-97.5 59.9-47.8 163.3-40.9 163.3-40.9zm238 135c-44 0-79.8 35.8-79.8 79.9s35.7 79.9 79.8 79.9 79.8-35.8 79.8-79.9c0-44.2-35.8-79.9-79.8-79.9zm142-320.8-19.8-25c-5.5-6.9-15.5-8-22.4-2.6l-232.5 177.9-34.1-43c-5.1-6.4-15.1-5.2-18.6 2.2l-25.3 54.6 86.7 109.2 58.8-12.4c8-1.7 11.4-11.2 6.3-17.6l-34.1-42.9 232.5-177.9c6.9-5.5 8-15.6 2.5-22.5z"/></svg>