<svg viewBox="0 0 640 512" xmlns="http://www.w3.org/2000/svg"><path d="m431.98 448.01-47.97.05v-32.06h-128v32.21l-47.98.05c-8.82.01-15.97 7.16-15.98 15.99l-.05 31.73c-.01 8.85 7.17 16.03 16.02 16.02l223.96-.26c8.82-.01 15.97-7.16 15.98-15.98l.04-31.73c.01-8.85-7.17-16.03-16.02-16.02zm153.22-421.27c-2.62-15.43-16.21-26.74-32.14-26.74h-466.13c-15.93 0-29.52 11.31-32.14 26.74-58.11 342.42-54.75 321.34-54.76 325.26-.03 17.32 14.29 32 32.6 32h574.74c18.23 0 32.51-14.56 32.59-31.79.02-4.08 3.35 16.95-54.76-325.47zm-325.37 37.26h120.33l9.77 96h-139.87zm-75.17 256h-113.57l19.01-112h105.97zm16.29-160h-102.71l16.29-96h96.19zm32.82 160 11.4-112h149.65l11.4 112zm195.5-256h96.19l16.29 96h-102.71zm26.06 256-11.4-112h105.97l19.01 112z"/></svg>