<svg viewBox="0 0 448 512" xmlns="http://www.w3.org/2000/svg"><path d="m187.298 395.314-79.984 80.002c-6.248 6.247-16.383 6.245-22.627 0l-79.982-80.002c-10.07-10.07-2.898-27.314 11.314-27.314h47.981v-320c0-8.837 7.163-16 16-16h32c8.837 0 16 7.163 16 16v320h47.984c14.241 0 21.363 17.264 11.314 27.314zm119.075-180.007a12 12 0 0 1 -11.535 8.693h-35.717c-8.22 0-14.007-8.078-11.362-15.861l57.096-168a12 12 0 0 1 11.362-8.139h39.566c5.139 0 9.708 3.273 11.362 8.139l57.096 168c2.645 7.783-3.141 15.861-11.362 15.861h-35.735a12 12 0 0 1 -11.515-8.622l-8.301-28.299h-42.863zm22.857-78.697h13.367l-6.6-22.937zm12.575 287.323 67.451-95.698a12 12 0 0 0 2.192-6.913v-21.322c0-6.627-5.373-12-12-12h-124.926c-6.627 0-12 5.373-12 12v28.93c0 6.627 5.373 12 12 12h56.469c-.739.991-1.497 2.036-2.27 3.133l-67.203 95.205a12.001 12.001 0 0 0 -2.196 6.92v21.812c0 6.627 5.373 12 12 12h129.355c6.627 0 12-5.373 12-12v-28.93c0-6.627-5.373-12-12-12h-61.146c.74-.993 1.5-2.039 2.274-3.137z"/></svg>