<svg viewBox="0 0 464 512" xmlns="http://www.w3.org/2000/svg"><path d="m405.68 256 53.21-89.39c14.41-24.21-3.41-54.61-32.01-54.61h-106.92l-55.95-93.98c-7.15-12.01-19.58-18.02-32.01-18.02s-24.86 6.01-32.01 18.02l-55.95 93.98h-106.93c-28.6 0-46.42 30.4-32.01 54.61l53.22 89.39-53.22 89.39c-14.41 24.21 3.41 54.61 32.01 54.61h106.93l55.95 93.98c7.15 12.01 19.58 18.02 32.01 18.02s24.86-6.01 32.01-18.02l55.95-93.98h106.93c28.6 0 46.42-30.4 32.01-54.61zm-12.78-88-19.8 33.26-19.8-33.26zm-52.39 88-52.39 88h-112.24l-52.39-88 52.38-88h112.25zm-108.51-182.28 22.79 38.28h-45.57zm-160.9 94.28h39.6l-19.8 33.26zm0 176 19.8-33.26 19.8 33.26zm160.9 94.28-22.79-38.28h45.57zm121.29-94.28 19.8-33.26 19.81 33.26z"/></svg>