<svg viewBox="0 0 448 512" xmlns="http://www.w3.org/2000/svg"><path d="m0 84v-28c0-13.3 10.7-24 24-24h112l9.4-18.7c4-8.2 12.3-13.3 21.4-13.3h114.3c9.1 0 17.4 5.1 21.5 13.3l9.4 18.7h112c13.3 0 24 10.7 24 24v28c0 6.6-5.4 12-12 12h-424c-6.6 0-12-5.4-12-12zm416 56v324c0 26.5-21.5 48-48 48h-288c-26.5 0-48-21.5-48-48v-324c0-6.6 5.4-12 12-12h360c6.6 0 12 5.4 12 12zm-272 68c0-8.8-7.2-16-16-16s-16 7.2-16 16v224c0 8.8 7.2 16 16 16s16-7.2 16-16zm96 0c0-8.8-7.2-16-16-16s-16 7.2-16 16v224c0 8.8 7.2 16 16 16s16-7.2 16-16zm96 0c0-8.8-7.2-16-16-16s-16 7.2-16 16v224c0 8.8 7.2 16 16 16s16-7.2 16-16z"/></svg>