<svg viewBox="0 0 512 512" xmlns="http://www.w3.org/2000/svg"><path d="m512 128v-96c0-17.67-14.33-32-32-32h-96c-17.67 0-32 14.33-32 32h-192c0-17.67-14.33-32-32-32h-96c-17.67 0-32 14.33-32 32v96c0 17.67 14.33 32 32 32v192c-17.67 0-32 14.33-32 32v96c0 17.67 14.33 32 32 32h96c17.67 0 32-14.33 32-32h192c0 17.67 14.33 32 32 32h96c17.67 0 32-14.33 32-32v-96c0-17.67-14.33-32-32-32v-192c17.67 0 32-14.33 32-32zm-96-64h32v32h-32zm-352 0h32v32h-32zm32 384h-32v-32h32zm352 0h-32v-32h32zm-32-96h-32c-17.67 0-32 14.33-32 32v32h-192v-32c0-17.67-14.33-32-32-32h-32v-192h32c17.67 0 32-14.33 32-32v-32h192v32c0 17.67 14.33 32 32 32h32z"/></svg>