<svg viewBox="0 0 448 512" xmlns="http://www.w3.org/2000/svg"><path d="m400 64h-48v-48c0-8.8-7.2-16-16-16h-32c-8.8 0-16 7.2-16 16v48h-128v-48c0-8.8-7.2-16-16-16h-32c-8.8 0-16 7.2-16 16v48h-48c-26.5 0-48 21.5-48 48v352c0 26.5 21.5 48 48 48h352c26.5 0 48-21.5 48-48v-352c0-26.5-21.5-48-48-48zm0 96v80h-96v-80zm-224 192v-80h96v80zm96 32v80h-96v-80zm-128-32h-96v-80h96zm32-112v-80h96v80zm128 32h96v80h-96zm-160-112v80h-96v-80zm-96 298v-74h96v80h-90c-3.3 0-6-2.7-6-6zm346 6h-90v-80h96v74c0 3.3-2.7 6-6 6z"/></svg>