<svg viewBox="0 0 496 512" xmlns="http://www.w3.org/2000/svg"><path d="m347.94 129.86-144.34 65.97a31.938 31.938 0 0 0 -15.77 15.77l-65.97 144.34c-7.61 16.65 9.54 33.81 26.2 26.2l144.34-65.97a31.938 31.938 0 0 0 15.77-15.77l65.97-144.34c7.61-16.66-9.54-33.81-26.2-26.2zm-77.36 148.72c-12.47 12.47-32.69 12.47-45.16 0s-12.47-32.69 0-45.16 32.69-12.47 45.16 0 12.47 32.69 0 45.16zm-22.58-270.58c-136.97 0-248 111.03-248 248s111.03 248 248 248 248-111.03 248-248-111.03-248-248-248zm0 448c-110.28 0-200-89.72-200-200s89.72-200 200-200 200 89.72 200 200-89.72 200-200 200z"/></svg>