<svg viewBox="0 0 496 512" xmlns="http://www.w3.org/2000/svg"><path d="m248 8c-137 0-248 111-248 248s111 248 248 248 248-111 248-248-111-248-248-248zm0 448c-110.3 0-200-89.7-200-200s89.7-200 200-200 200 89.7 200 200-89.7 200-200 200zm-33.8-217.9c7.8-7.8 7.8-20.5 0-28.3l-17.9-17.8 17.9-17.9c7.8-7.8 7.8-20.5 0-28.3s-20.5-7.8-28.3 0l-17.9 17.9-17.8-17.8c-7.8-7.8-20.5-7.8-28.3 0s-7.8 20.5 0 28.3l17.9 17.9-17.9 17.9c-7.8 7.8-7.8 20.5 0 28.3s20.5 7.8 28.3 0l17.8-17.8 17.8 17.8c7.9 7.7 20.5 7.7 28.4-.2zm160-92.2c-7.8-7.8-20.5-7.8-28.3 0l-17.9 17.8-17.8-17.8c-7.8-7.8-20.5-7.8-28.3 0s-7.8 20.5 0 28.3l17.9 17.9-17.9 17.9c-7.8 7.8-7.8 20.5 0 28.3s20.5 7.8 28.3 0l17.8-17.8 17.8 17.8c7.8 7.8 20.5 7.8 28.3 0s7.8-20.5 0-28.3l-17.8-18 17.9-17.9c7.7-7.8 7.7-20.4 0-28.2zm-126.2 126.1c-35.3 0-64 28.7-64 64s28.7 64 64 64 64-28.7 64-64-28.7-64-64-64z"/></svg>