<svg viewBox="0 0 576 512" xmlns="http://www.w3.org/2000/svg"><path d="m564 224c6.627 0 12-5.373 12-12v-72c0-6.627-5.373-12-12-12h-72c-6.627 0-12 5.373-12 12v12h-88v-24h12c6.627 0 12-5.373 12-12v-72c0-6.627-5.373-12-12-12h-72c-6.627 0-12 5.373-12 12v12h-224v-12c0-6.627-5.373-12-12-12h-72c-6.627 0-12 5.373-12 12v72c0 6.627 5.373 12 12 12h12v160h-12c-6.627 0-12 5.373-12 12v72c0 6.627 5.373 12 12 12h72c6.627 0 12-5.373 12-12v-12h88v24h-12c-6.627 0-12 5.373-12 12v72c0 6.627 5.373 12 12 12h72c6.627 0 12-5.373 12-12v-12h224v12c0 6.627 5.373 12 12 12h72c6.627 0 12-5.373 12-12v-72c0-6.627-5.373-12-12-12h-12v-160zm-212-160h32v32h-32zm0 256h32v32h-32zm-288 32h-32v-32h32zm0-256h-32v-32h32zm32 216v-12c0-6.627-5.373-12-12-12h-12v-160h12c6.627 0 12-5.373 12-12v-12h224v12c0 6.627 5.373 12 12 12h12v160h-12c-6.627 0-12 5.373-12 12v12zm128 136h-32v-32h32zm280-64h-12c-6.627 0-12 5.373-12 12v12h-224v-12c0-6.627-5.373-12-12-12h-12v-24h88v12c0 6.627 5.373 12 12 12h72c6.627 0 12-5.373 12-12v-72c0-6.627-5.373-12-12-12h-12v-88h88v12c0 6.627 5.373 12 12 12h12zm40 64h-32v-32h32zm0-256h-32v-32h32z"/></svg>