<svg viewBox="0 0 512 512" xmlns="http://www.w3.org/2000/svg"><path d="m494.2 221.9-59.8-40.5 13.7-71c2.6-13.2-1.6-26.8-11.1-36.4-9.6-9.5-23.2-13.7-36.2-11.1l-70.9 13.7-40.4-59.9c-15.1-22.3-51.9-22.3-67 0l-40.4 59.9-70.8-13.7c-13.3-2.5-26.8 1.6-36.3 11.2s-13.7 23.1-11.1 36.3l13.7 71-59.8 40.5c-11.2 7.6-17.8 20.1-17.8 33.6s6.7 26 17.8 33.5l59.8 40.5-13.7 71c-2.6 13.2 1.6 26.8 11.1 36.3s22.9 13.7 36.3 11.1l70.8-13.7 40.4 59.9c7.5 11.2 20.1 17.9 33.5 17.9s26-6.7 33.5-17.8l40.4-59.9 70.9 13.7c13.4 2.7 26.8-1.6 36.3-11.1s13.6-23.1 11.1-36.3l-13.7-71 59.8-40.5c11.1-7.5 17.8-20.1 17.8-33.5-.1-13.6-6.7-26.1-17.9-33.7zm-112.9 85.6 17.6 91.2-91-17.6-51.9 76.9-51.9-77-90.9 17.6 17.6-91.2-76.8-52 76.8-52-17.6-91.2 91 17.6 51.8-76.8 51.9 76.9 91-17.6-17.6 91.1 76.8 52zm-125.3-155.5c-57.3 0-104 46.7-104 104s46.7 104 104 104 104-46.7 104-104-46.7-104-104-104zm0 160c-30.9 0-56-25.1-56-56s25.1-56 56-56 56 25.1 56 56-25.1 56-56 56z"/></svg>